# WaveFront *.obj file (generated by Autodesk ATF)

mtllib map1.mtl

g Solid1

v -6100.000000 6000.000000 -6100.000000
v -6100.000000 6000.000000 100.000000
v -6100.000000 8000.000000 -6100.000000
v -6100.000000 8000.000000 100.000000
v -6000.000000 6000.000000 -6000.000000
v -6000.000000 6000.000000 0.000000
v -6000.000000 8000.000000 -6000.000000
v -6000.000000 8000.000000 0.000000
v 0.000000 6000.000000 -6000.000000
v 0.000000 6000.000000 0.000000
v 0.000000 8000.000000 -6000.000000
v 0.000000 8000.000000 0.000000
v 100.000000 6000.000000 -6100.000000
v 100.000000 6000.000000 100.000000
v 100.000000 8000.000000 -6100.000000
v 100.000000 8000.000000 100.000000
vt -600.000000 0.000000 0.000000
vt -0.000000 0.000000 0.000000
vt -600.000000 200.000000 0.000000
vt -600.000000 200.000000 0.000000
vt -0.000000 0.000000 0.000000
vt -0.000000 200.000000 0.000000
vt -600.000000 0.000000 0.000000
vt -0.000000 0.000000 0.000000
vt -600.000000 200.000000 0.000000
vt -600.000000 200.000000 0.000000
vt -0.000000 0.000000 0.000000
vt -0.000000 200.000000 0.000000
vt -600.000000 0.000000 0.000000
vt -0.000000 0.000000 0.000000
vt -600.000000 200.000000 0.000000
vt -600.000000 200.000000 0.000000
vt -0.000000 0.000000 0.000000
vt -0.000000 200.000000 0.000000
vt -600.000000 0.000000 0.000000
vt -0.000000 0.000000 0.000000
vt -600.000000 200.000000 0.000000
vt -600.000000 200.000000 0.000000
vt -0.000000 0.000000 0.000000
vt -0.000000 200.000000 0.000000
vt 0.000000 0.000000 0.000000
vt 620.000000 0.000000 0.000000
vt 0.000000 200.000000 0.000000
vt 0.000000 200.000000 0.000000
vt 620.000000 0.000000 0.000000
vt 620.000000 200.000000 0.000000
vt 0.000000 0.000000 0.000000
vt 620.000000 0.000000 0.000000
vt 0.000000 200.000000 0.000000
vt 0.000000 200.000000 0.000000
vt 620.000000 0.000000 0.000000
vt 620.000000 200.000000 0.000000
vt 0.000000 0.000000 0.000000
vt 620.000000 0.000000 0.000000
vt 0.000000 200.000000 0.000000
vt 0.000000 200.000000 0.000000
vt 620.000000 0.000000 0.000000
vt 620.000000 200.000000 0.000000
vt 0.000000 0.000000 0.000000
vt 620.000000 0.000000 0.000000
vt 0.000000 200.000000 0.000000
vt 0.000000 200.000000 0.000000
vt 620.000000 0.000000 0.000000
vt 620.000000 200.000000 0.000000
vt 300.000000 300.000000 0.000000
vt 300.000000 -300.000000 0.000000
vt 310.000000 -310.000000 0.000000
vt 310.000000 -310.000000 0.000000
vt 300.000000 -300.000000 0.000000
vt -300.000000 -300.000000 0.000000
vt 310.000000 -310.000000 0.000000
vt -300.000000 -300.000000 0.000000
vt -310.000000 -310.000000 0.000000
vt -310.000000 -310.000000 0.000000
vt -300.000000 -300.000000 0.000000
vt -300.000000 300.000000 0.000000
vt -310.000000 -310.000000 0.000000
vt -300.000000 300.000000 0.000000
vt -310.000000 310.000000 0.000000
vt -310.000000 310.000000 0.000000
vt -300.000000 300.000000 0.000000
vt 300.000000 300.000000 0.000000
vt -310.000000 310.000000 0.000000
vt 300.000000 300.000000 0.000000
vt 310.000000 310.000000 0.000000
vt 310.000000 310.000000 0.000000
vt 300.000000 300.000000 0.000000
vt 310.000000 -310.000000 0.000000
vt 300.000000 300.000000 0.000000
vt 300.000000 -300.000000 0.000000
vt 310.000000 -310.000000 0.000000
vt 310.000000 -310.000000 0.000000
vt 300.000000 -300.000000 0.000000
vt -300.000000 -300.000000 0.000000
vt 310.000000 -310.000000 0.000000
vt -300.000000 -300.000000 0.000000
vt -310.000000 -310.000000 0.000000
vt -310.000000 -310.000000 0.000000
vt -300.000000 -300.000000 0.000000
vt -300.000000 300.000000 0.000000
vt -310.000000 -310.000000 0.000000
vt -300.000000 300.000000 0.000000
vt -310.000000 310.000000 0.000000
vt -310.000000 310.000000 0.000000
vt -300.000000 300.000000 0.000000
vt 300.000000 300.000000 0.000000
vt -310.000000 310.000000 0.000000
vt 300.000000 300.000000 0.000000
vt 310.000000 310.000000 0.000000
vt 310.000000 310.000000 0.000000
vt 300.000000 300.000000 0.000000
vt 310.000000 -310.000000 0.000000
vn 0.100000 0.000000 0.000000
vn 0.100000 0.000000 0.000000
vn 0.100000 0.000000 0.000000
vn 0.100000 0.000000 0.000000
vn 0.100000 0.000000 0.000000
vn 0.100000 0.000000 0.000000
vn 0.000000 0.000000 0.100000
vn 0.000000 0.000000 0.100000
vn 0.000000 0.000000 0.100000
vn 0.000000 0.000000 0.100000
vn 0.000000 0.000000 0.100000
vn 0.000000 0.000000 0.100000
vn -0.100000 0.000000 0.000000
vn -0.100000 0.000000 0.000000
vn -0.100000 0.000000 0.000000
vn -0.100000 0.000000 0.000000
vn -0.100000 0.000000 0.000000
vn -0.100000 0.000000 0.000000
vn 0.000000 0.000000 -0.100000
vn 0.000000 0.000000 -0.100000
vn 0.000000 0.000000 -0.100000
vn 0.000000 0.000000 -0.100000
vn 0.000000 0.000000 -0.100000
vn 0.000000 0.000000 -0.100000
vn -0.100000 0.000000 0.000000
vn -0.100000 0.000000 0.000000
vn -0.100000 0.000000 0.000000
vn -0.100000 0.000000 0.000000
vn -0.100000 0.000000 0.000000
vn -0.100000 0.000000 0.000000
vn 0.000000 0.000000 -0.100000
vn 0.000000 0.000000 -0.100000
vn 0.000000 0.000000 -0.100000
vn 0.000000 0.000000 -0.100000
vn 0.000000 0.000000 -0.100000
vn 0.000000 0.000000 -0.100000
vn 0.100000 0.000000 0.000000
vn 0.100000 0.000000 0.000000
vn 0.100000 0.000000 0.000000
vn 0.100000 0.000000 0.000000
vn 0.100000 0.000000 0.000000
vn 0.100000 0.000000 0.000000
vn 0.000000 0.000000 0.100000
vn 0.000000 0.000000 0.100000
vn 0.000000 0.000000 0.100000
vn 0.000000 0.000000 0.100000
vn 0.000000 0.000000 0.100000
vn 0.000000 0.000000 0.100000
vn 0.000000 0.100000 0.000000
vn 0.000000 0.100000 0.000000
vn 0.000000 0.100000 0.000000
vn 0.000000 0.100000 0.000000
vn 0.000000 0.100000 0.000000
vn 0.000000 0.100000 0.000000
vn 0.000000 0.100000 0.000000
vn 0.000000 0.100000 0.000000
vn 0.000000 0.100000 0.000000
vn 0.000000 0.100000 0.000000
vn 0.000000 0.100000 0.000000
vn 0.000000 0.100000 0.000000
vn 0.000000 0.100000 0.000000
vn 0.000000 0.100000 0.000000
vn 0.000000 0.100000 0.000000
vn 0.000000 0.100000 0.000000
vn 0.000000 0.100000 0.000000
vn 0.000000 0.100000 0.000000
vn 0.000000 0.100000 0.000000
vn 0.000000 0.100000 0.000000
vn 0.000000 0.100000 0.000000
vn 0.000000 0.100000 0.000000
vn 0.000000 0.100000 0.000000
vn 0.000000 0.100000 0.000000
vn 0.000000 -0.100000 0.000000
vn 0.000000 -0.100000 0.000000
vn 0.000000 -0.100000 0.000000
vn 0.000000 -0.100000 0.000000
vn 0.000000 -0.100000 0.000000
vn 0.000000 -0.100000 0.000000
vn 0.000000 -0.100000 0.000000
vn 0.000000 -0.100000 0.000000
vn 0.000000 -0.100000 0.000000
vn 0.000000 -0.100000 0.000000
vn 0.000000 -0.100000 0.000000
vn 0.000000 -0.100000 0.000000
vn 0.000000 -0.100000 0.000000
vn 0.000000 -0.100000 0.000000
vn 0.000000 -0.100000 0.000000
vn 0.000000 -0.100000 0.000000
vn 0.000000 -0.100000 0.000000
vn 0.000000 -0.100000 0.000000
vn 0.000000 -0.100000 0.000000
vn 0.000000 -0.100000 0.000000
vn 0.000000 -0.100000 0.000000
vn 0.000000 -0.100000 0.000000
vn 0.000000 -0.100000 0.000000
vn 0.000000 -0.100000 0.000000
usemtl 191,191,191
f 6/1/1 5/2/2 8/3/3
f 8/4/4 5/5/5 7/6/6
f 5/7/7 9/8/8 7/9/9
f 7/10/10 9/11/11 11/12/12
f 9/13/13 10/14/14 11/15/15
f 11/16/16 10/17/17 12/18/18
f 10/19/19 6/20/20 12/21/21
f 12/22/22 6/23/23 8/24/24
f 1/25/25 2/26/26 3/27/27
f 3/28/28 2/29/29 4/30/30
f 13/31/31 1/32/32 15/33/33
f 15/34/34 1/35/35 3/36/36
f 14/37/37 13/38/38 16/39/39
f 16/40/40 13/41/41 15/42/42
f 2/43/43 14/44/44 4/45/45
f 4/46/46 14/47/47 16/48/48
f 12/49/49 8/50/50 4/51/51
f 4/52/52 8/53/53 7/54/54
f 4/55/55 7/56/56 3/57/57
f 3/58/58 7/59/59 11/60/60
f 3/61/61 11/62/62 15/63/63
f 15/64/64 11/65/65 12/66/66
f 15/67/67 12/68/68 16/69/69
f 16/70/70 12/71/71 4/72/72
f 9/73/73 5/74/74 1/75/75
f 1/76/76 5/77/77 6/78/78
f 1/79/79 6/80/80 2/81/81
f 2/82/82 6/83/83 10/84/84
f 2/85/85 10/86/86 14/87/87
f 14/88/88 10/89/89 9/90/90
f 14/91/91 9/92/92 13/93/93
f 13/94/94 9/95/95 1/96/96

# 16 vertices
# 96 texture params
# 96 normals
# 32 facets

# 1 groups
